<?xml version="1.0" encoding="UTF-8"?>
<svg version="1.1" xmlns="http://www.w3.org/2000/svg" width="512" height="512">
<path d="M0 0 C1.33738349 -0.00461839 2.67476189 -0.01097756 4.01212984 -0.01890898 C7.65836007 -0.03549732 11.30416771 -0.02740436 14.9503988 -0.0149641 C18.89392187 -0.00587244 22.83737487 -0.0199037 26.78088379 -0.03088379 C34.49512593 -0.04863037 42.20921203 -0.04484616 49.92346018 -0.03323323 C56.19599126 -0.02418328 62.46847874 -0.02298165 68.74101448 -0.02732849 C69.63527646 -0.02794142 70.52953844 -0.02855436 71.45089926 -0.02918586 C73.26784162 -0.03046482 75.08478398 -0.03176168 76.90172631 -0.03307623 C93.92248332 -0.04447089 110.94315403 -0.03138617 127.96389688 -0.00987476 C142.5522735 0.00799214 157.14052277 0.00489332 171.72889709 -0.0135498 C188.68904975 -0.03498152 205.64912683 -0.04336913 222.60929114 -0.03110075 C224.41968857 -0.02982662 226.23008602 -0.02856914 228.04048347 -0.02732849 C229.37644095 -0.02640284 229.37644095 -0.02640284 230.73938746 -0.02545848 C237.00015519 -0.02201225 243.26087478 -0.02781829 249.52163506 -0.0372467 C257.15758368 -0.0484938 264.79336794 -0.04537 272.42929786 -0.02412373 C276.32149001 -0.01364915 280.21340865 -0.00942958 284.10559845 -0.02272034 C287.67544377 -0.0347255 291.24476459 -0.0279499 294.81456298 -0.00681013 C296.70300113 -0.00029441 298.5914763 -0.01320731 300.47987503 -0.02703905 C314.91303743 0.10436388 325.6390922 5.11440839 336.20765686 14.75793457 C346.17842864 25.24605771 348.91274609 37.97489875 348.86170959 51.91882324 C348.87200447 53.89606636 348.87200447 53.89606636 348.88250732 55.91325378 C348.90034355 59.50398983 348.89928942 63.09448027 348.89356494 66.68524718 C348.89046148 69.68991277 348.89657782 72.69453196 348.90260369 75.69919091 C348.91661376 82.7870899 348.91511495 89.87486824 348.90370178 96.96276855 C348.89220296 104.26509383 348.90633357 111.56705259 348.93309826 118.86932963 C348.95526439 125.15323089 348.96189122 131.43701715 348.95602185 137.72095472 C348.95265576 141.46805797 348.95504487 145.21492588 348.97227287 148.96199608 C348.99063288 153.13664342 348.97654575 157.31057718 348.95936584 161.48522949 C348.96903381 162.72121887 348.97870178 163.95720825 348.98866272 165.23065186 C348.93357489 171.6141551 348.83528799 175.6984408 344.45765686 180.50793457 C340.63835514 184.1362712 337.5748668 184.81793915 332.45765686 185.00793457 C327.34044692 184.81793915 324.27695858 184.1362712 320.45765686 180.50793457 C315.50395544 174.93234837 315.89775294 169.62766903 315.95936584 162.40319824 C315.95108765 160.58014412 315.95108765 160.58014412 315.94264221 158.72026062 C315.93332459 156.08440316 315.93115612 153.44969782 315.9412365 150.81395531 C315.95685213 146.63964498 315.94308046 142.46574052 315.92520142 138.29145813 C315.89442096 130.17892166 315.89287792 122.06651016 315.89485168 113.95392609 C315.8962455 103.6388487 315.88576485 93.32386821 315.84627396 83.00886136 C315.83140738 78.86659342 315.83156037 74.72468803 315.84375179 70.58241498 C315.8496029 67.38853602 315.83640863 64.19471773 315.82655334 61.00085449 C315.83813225 59.29624054 315.83813225 59.29624054 315.84994507 57.55718994 C315.80266831 50.11405905 315.46246766 42.76314627 310.20765686 37.07043457 C303.08611272 33.02410267 296.13683841 33.22108626 288.13542175 33.24723816 C286.27387555 33.24149984 286.27387555 33.24149984 284.37472236 33.23564559 C280.94176125 33.22712712 277.5090149 33.22754359 274.07606006 33.23182619 C270.36908011 33.2342961 266.66212517 33.22527594 262.95515442 33.2177887 C255.69728052 33.20504698 248.43944362 33.20324735 241.18156041 33.20558896 C235.28124701 33.20737289 229.38094484 33.20562086 223.48063278 33.20136452 C222.6404699 33.20076933 221.80030702 33.20017414 220.93468466 33.19956091 C219.22781897 33.19834915 217.52095329 33.19713501 215.81408761 33.19591854 C199.81115571 33.185045 183.80824488 33.18720459 167.80531178 33.19330338 C153.17159442 33.19847219 138.53794363 33.18721774 123.90423943 33.16820516 C108.87141309 33.14882405 93.83861825 33.14057126 78.80577934 33.14432842 C70.3687743 33.14624007 61.93182592 33.14375639 53.49483109 33.12961388 C46.31217742 33.11769562 39.12961528 33.11630016 31.94696034 33.12840404 C28.28405524 33.13428966 24.62131753 33.13540105 20.95842361 33.12340164 C16.98348606 33.11053159 13.00880165 33.12101492 9.03385925 33.13371277 C7.30607245 33.12265134 7.30607245 33.12265134 5.54338086 33.11136645 C-1.91141713 33.16145557 -9.27740335 33.494144 -14.97984314 38.75793457 C-18.00072355 44.0746841 -18.79229565 49.29340523 -18.79681873 55.34119987 C-18.80002521 55.99491591 -18.80323169 56.64863195 -18.80653533 57.32215756 C-18.81481039 59.5039554 -18.80891994 61.68547692 -18.80303955 63.86727905 C-18.80606138 65.45083138 -18.80995102 67.03438224 -18.81463212 68.61793053 C-18.82491686 72.9629691 -18.82272908 77.3079252 -18.81845152 81.65297055 C-18.81598517 86.34155242 -18.82499734 91.03011438 -18.83248901 95.71868896 C-18.84524056 104.90163836 -18.84702914 114.08455853 -18.84468875 123.26751529 C-18.84290594 130.7315199 -18.84465444 138.19551564 -18.84891319 145.6595192 C-18.84950838 146.72171098 -18.85010357 147.78390276 -18.8507168 148.87828217 C-18.85192854 151.03610785 -18.85314268 153.19393353 -18.85435917 155.35175921 C-18.86523647 175.5894996 -18.86307132 195.82722333 -18.85697433 216.06496467 C-18.85180502 234.57859233 -18.86306065 253.09216738 -18.88207255 271.60578464 C-18.90144498 290.61625331 -18.90970799 309.62669708 -18.90594929 328.63717568 C-18.90403635 339.30983024 -18.90653394 349.98244001 -18.92066383 360.65508652 C-18.93257102 369.7408196 -18.93398994 378.82648032 -18.92187367 387.91221438 C-18.91598035 392.54723493 -18.91489811 397.18212309 -18.92687607 401.81713486 C-18.93771898 406.06228153 -18.93465048 410.30718503 -18.92061438 414.55232026 C-18.91796307 416.08590825 -18.92034764 417.61951521 -18.92835025 419.15308462 C-19.26388888 432.51566668 -19.26388888 432.51566668 -13.29234314 443.94543457 C-7.71655195 447.11349774 -2.14356605 447.80254457 4.16848755 447.75949097 C4.91344166 447.76246111 5.65839577 447.76543124 6.42592424 447.76849139 C8.90541297 447.77608914 11.38466184 447.76965492 13.864151 447.76330566 C15.64853068 447.76605748 17.43290913 447.76973853 19.21728516 447.77427673 C23.0515515 447.78237231 26.88575959 447.78456137 30.72003365 447.78232956 C36.78378168 447.77949199 42.84741363 447.79386408 48.91113281 447.81130981 C66.15098847 447.85829737 83.39083569 447.88228405 100.63075256 447.88879395 C110.15850464 447.89254349 119.68612485 447.91056129 129.2138204 447.94388831 C135.24106959 447.96410878 141.26797885 447.96646983 147.29524815 447.95560813 C151.0442492 447.95300186 154.79305204 447.96700033 158.54200172 447.98568916 C160.2794294 447.99101311 162.01689354 447.98951088 163.75430679 447.98065376 C166.12794858 447.96952955 168.50024979 447.98296593 170.87380981 448.00241089 C171.55971052 447.99328623 172.24561122 447.98416157 172.95229679 447.97476041 C177.88107244 448.053225 180.6371344 449.47280578 184.45765686 452.50793457 C188.08599349 456.32723629 188.76766144 459.39072463 188.95765686 464.50793457 C188.76766144 469.62514451 188.08599349 472.68863285 184.45765686 476.50793457 C179.84276111 480.20434453 176.29484835 481.08721649 170.52108765 481.01586914 C169.34897658 481.02522908 169.34897658 481.02522908 168.1531865 481.03477812 C165.5438359 481.05068859 162.93542202 481.03811164 160.32606506 481.0255127 C158.45142066 481.03093491 156.57678052 481.03805813 154.70214844 481.04675293 C149.6150442 481.06498362 144.52826461 481.05791807 139.44115472 481.04523659 C134.11048024 481.03510017 128.77983331 481.04450475 123.44915771 481.05078125 C114.49206056 481.05805893 105.53509531 481.04847004 96.57801819 481.02941895 C86.23972634 481.00768323 75.90175046 481.01467712 65.56346637 481.03672457 C56.67659542 481.05491478 47.78981926 481.0574182 38.90293568 481.04696989 C33.60020889 481.04075058 28.29763023 481.03985556 22.9949131 481.05311584 C18.00351228 481.06472524 13.01251567 481.05655597 8.02115822 481.03353882 C6.19552784 481.02827739 4.36986309 481.0297212 2.54424667 481.03858948 C-7.21127672 481.08158559 -15.57872383 480.88895988 -24.54234314 476.50793457 C-25.52589783 476.03871582 -26.50945251 475.56949707 -27.52281189 475.08605957 C-39.52969232 467.8606802 -46.76894807 458.04492446 -51.13185471 444.7055288 C-51.69435071 441.69414561 -51.67207167 438.80089476 -51.67656422 435.73705196 C-51.67891645 435.05362918 -51.68126868 434.37020639 -51.68369219 433.66607383 C-51.69037411 431.3652115 -51.68992421 429.06440576 -51.68951416 426.76353455 C-51.69281329 425.10150172 -51.69653896 423.4394697 -51.70065564 421.7774387 C-51.71067823 417.20147582 -51.71439285 412.62552605 -51.71704495 408.04955375 C-51.72094725 403.11752825 -51.73052566 398.18551314 -51.73925781 393.25349426 C-51.75902463 381.33806169 -51.76908885 369.42262827 -51.7779856 357.5071834 C-51.78236827 351.8965279 -51.78773515 346.28587334 -51.79297447 340.67521858 C-51.8099872 322.02486969 -51.82448139 303.37452138 -51.83172321 284.72416592 C-51.83363312 279.88377825 -51.83555345 275.04339058 -51.83750916 270.20300293 C-51.8379929 268.99994198 -51.83847664 267.79688104 -51.83897503 266.5573637 C-51.84727538 247.06844256 -51.8726122 227.5795828 -51.90508983 208.09068846 C-51.93815923 188.08363792 -51.95617188 168.07661857 -51.95936745 148.06954056 C-51.96153269 136.83560732 -51.97028337 125.60176359 -51.99582863 114.36785698 C-52.01753398 104.80047528 -52.02558684 95.23320481 -52.01586185 85.66580128 C-52.01131666 80.7854566 -52.01321621 75.90534144 -52.03262329 71.02502823 C-52.05025201 66.55324272 -52.04925957 62.08185422 -52.033726 57.61006451 C-52.03134949 55.99626608 -52.03567574 54.38244018 -52.04755465 52.76868372 C-52.1536471 37.39825363 -48.46561754 24.59285709 -37.72984314 13.19543457 C-27.14812287 3.23498955 -14.1980962 -0.10380514 0 0 Z " fill="#000000" transform="translate(51.54234313964844,-0.5079345703125)"/>
<path d="M0 0 C6.1355504 3.43107964 10.77761026 8.48936276 15.703125 13.4375 C16.62212585 14.3545874 17.54112671 15.2716748 18.48797607 16.21655273 C20.42428567 18.14992695 22.35696495 20.08683865 24.28710938 22.02636719 C26.75729002 24.50797347 29.23638557 26.98044875 31.71825027 29.45036316 C34.09307986 31.81622135 36.46025342 34.18967766 38.828125 36.5625 C39.71767883 37.44800537 40.60723267 38.33351074 41.52374268 39.24584961 C42.34509705 40.0735083 43.16645142 40.90116699 44.01269531 41.75390625 C44.73628235 42.47908447 45.45986938 43.2042627 46.2053833 43.95141602 C49.58281222 47.80680575 50.31025054 50.78569256 50.375 55.875 C50.40335938 56.88304687 50.43171875 57.89109375 50.4609375 58.9296875 C49.27866335 66.80483563 41.9319505 72.35822322 36.5625 77.703125 C35.6454126 78.62212585 34.7283252 79.54112671 33.78344727 80.48797607 C31.85007305 82.42428567 29.91316135 84.35696495 27.97363281 86.28710938 C25.49202653 88.75729002 23.01955125 91.23638557 20.54963684 93.71825027 C18.18377865 96.09307986 15.81032234 98.46025342 13.4375 100.828125 C12.10924194 102.16245575 12.10924194 102.16245575 10.75415039 103.52374268 C9.9264917 104.34509705 9.09883301 105.16645142 8.24609375 106.01269531 C7.52091553 106.73628235 6.7957373 107.45986938 6.04858398 108.2053833 C1.27603524 112.38626909 -2.91166864 112.43268042 -9.0859375 112.3125 C-14.38740101 111.74397844 -16.83972495 109.22134216 -20.375 105.5 C-22.72325726 100.44221514 -22.97097307 95.48314207 -22 90 C-19.41131417 85.34278484 -16.04488495 81.79040069 -12.25 78.125 C-11.74339844 77.62742187 -11.23679687 77.12984375 -10.71484375 76.6171875 C-9.48114693 75.40676798 -8.24122216 74.20270147 -7 73 C-35.54554115 72.29997311 -63.24596219 76.96434837 -85 97 C-85.90105469 97.80953125 -86.80210937 98.6190625 -87.73046875 99.453125 C-103.08953232 113.94360704 -114.86896464 135.5711439 -116.17700195 156.8840332 C-116.7874384 188.42973522 -110.03200087 213.16913198 -87.875 236.5625 C-69.54805265 254.48443194 -44.40010069 262.80797517 -19.08203125 263.03515625 C7.53900466 261.88503773 30.8835852 249.90824056 49.328125 231.046875 C64.56752491 214.26814177 70.86875244 192.79486939 72.78588867 170.70605469 C73.54125609 162.99304047 74.80807497 159.03232878 80.5 153.625 C85.66500009 151.22696425 90.4002288 151.24618465 96 152 C100.96513266 154.30524016 103.42636745 157.21733285 106 162 C106.58546244 165.38721224 106.56900102 168.6947491 106.5 172.125 C106.48791504 173.09131348 106.47583008 174.05762695 106.46337891 175.05322266 C105.61190887 206.69178489 91.48587585 235.25460729 70 258 C69.31421875 258.75023437 68.6284375 259.50046875 67.921875 260.2734375 C52.48878216 276.56392439 31.43390999 287.12141646 10 293 C8.82566406 293.33902344 7.65132812 293.67804688 6.44140625 294.02734375 C-26.90778125 301.95371142 -62.04122771 294.27339082 -91 277 C-98.64807002 272.07124376 -105.3969807 266.23737979 -112 260 C-113.12535156 258.97132813 -113.12535156 258.97132813 -114.2734375 257.921875 C-130.56392439 242.48878216 -141.12141646 221.43390999 -147 200 C-147.33902344 198.82566406 -147.67804688 197.65132812 -148.02734375 196.44140625 C-155.56156938 164.7421067 -149.03281059 129.94651964 -133 102 C-127.49988511 93.30050263 -121.11500723 85.43151111 -114 78 C-113.31679688 77.25363281 -112.63359375 76.50726563 -111.9296875 75.73828125 C-105.66722196 69.11763042 -98.55651738 64.02036664 -91 59 C-90.06671875 58.3709375 -89.1334375 57.741875 -88.171875 57.09375 C-63.17942565 41.38421041 -35.6501657 39.32091727 -7 39 C-7.91523438 38.10796875 -8.83046875 37.2159375 -9.7734375 36.296875 C-10.97422282 35.11485195 -12.17472909 33.93254539 -13.375 32.75 C-13.97828125 32.16347656 -14.5815625 31.57695312 -15.203125 30.97265625 C-15.78320312 30.39902344 -16.36328125 29.82539063 -16.9609375 29.234375 C-17.49509277 28.71069336 -18.02924805 28.18701172 -18.57958984 27.64746094 C-22.50099788 23.09922075 -22.42539889 18.71424321 -22.3125 12.9140625 C-21.74397844 7.61259899 -19.22134216 5.16027505 -15.5 1.625 C-10.44221514 -0.72325726 -5.48314207 -0.97097307 0 0 Z " fill="#000000" transform="translate(406,216)"/>
<path d="M0 0 C4.96573448 2.30551958 7.36346531 5.25866871 10 10 C10.28139654 12.78582574 10.38863832 15.12356255 10.25 17.875 C10.23195312 18.56335938 10.21390625 19.25171875 10.1953125 19.9609375 C10.14863748 21.6412381 10.07690939 23.32081163 10 25 C11.30839844 25.1134375 12.61679688 25.226875 13.96484375 25.34375 C32.6504882 27.44629565 50.33731206 37.47414691 64 50 C64.92425781 50.84304687 65.84851563 51.68609375 66.80078125 52.5546875 C81.39129637 66.47924549 96.24648635 88.98631441 97.125 109.98828125 C97.08375 110.65214844 97.0425 111.31601563 97 112 C98.01320313 111.95359375 99.02640625 111.9071875 100.0703125 111.859375 C101.42184532 111.82183242 102.77341028 111.78543494 104.125 111.75 C104.79015625 111.71648437 105.4553125 111.68296875 106.140625 111.6484375 C111.29223051 111.54742563 114.03039382 112.80096443 118 116 C121.62833663 119.81930172 122.31000458 122.88279006 122.5 128 C122.31000458 133.11720994 121.62833663 136.18069828 118 140 C112.79147432 144.34641616 108.84489448 144.57247114 102.359375 144.50793457 C101.39476349 144.51417453 100.43015198 144.5204145 99.43630981 144.52684355 C96.2072905 144.54278556 92.97902478 144.5301642 89.75 144.51757812 C87.43375203 144.52299868 85.11750751 144.53012097 82.80126953 144.53881836 C76.51208045 144.55706229 70.22315367 144.54997957 63.93395996 144.53730202 C57.35440358 144.52718001 50.77486976 144.53656548 44.1953125 144.54284668 C32.43789297 144.55139149 20.68058385 144.53815549 8.92318344 144.51780933 C-1.73356185 144.49993868 -12.39013285 144.50304291 -23.046875 144.52148438 C-35.42718625 144.5428985 -47.80738638 144.55085424 -60.18771362 144.53903532 C-66.7394428 144.53279688 -73.29105195 144.53197453 -79.84277344 144.54518127 C-86.00209514 144.55672961 -92.16108745 144.54873215 -98.32037354 144.52560425 C-100.58188327 144.52031179 -102.84342069 144.52184005 -105.10491943 144.53065491 C-108.19011315 144.54157232 -111.27424885 144.5278919 -114.359375 144.50793457 C-115.25606903 144.51685746 -116.15276306 144.52578034 -117.07662964 144.53497362 C-122.54761822 144.46624432 -125.6520102 143.62831524 -130 140 C-133.62833663 136.18069828 -134.31000458 133.11720994 -134.5 128 C-134.31000458 122.88279006 -133.62833663 119.81930172 -130 116 C-125.38402208 112.28006486 -121.91454928 111.45827852 -116.125 111.75 C-115.43664062 111.76804687 -114.74828125 111.78609375 -114.0390625 111.8046875 C-112.3587619 111.85136252 -110.67918837 111.92309061 -109 112 C-108.8865625 110.69160156 -108.773125 109.38320312 -108.65625 108.03515625 C-108.12184731 103.28583789 -107.02526674 98.95770732 -105.5 94.4375 C-105.24009277 93.66664063 -104.98018555 92.89578125 -104.71240234 92.1015625 C-100.37924504 79.86558739 -93.75300754 68.59667092 -85 59 C-84.5467334 58.49903809 -84.0934668 57.99807617 -83.62646484 57.48193359 C-68.36774469 40.82287203 -49.20544912 29.67330367 -27 25 C-24.10546875 24.90234375 -24.10546875 24.90234375 -22 25 C-22.04640625 23.98679687 -22.0928125 22.97359375 -22.140625 21.9296875 C-22.17816758 20.57815468 -22.21456506 19.22658972 -22.25 17.875 C-22.28351563 17.20984375 -22.31703125 16.5446875 -22.3515625 15.859375 C-22.45257437 10.70776949 -21.19903557 7.96960618 -18 4 C-12.72867143 -1.00776214 -6.89190982 -0.92775709 0 0 Z M-34 62 C-35.59328125 62.63421875 -35.59328125 62.63421875 -37.21875 63.28125 C-52.50425109 70.05729687 -65.72546373 84.70363527 -72.26171875 99.94140625 C-73.88602931 104.22160707 -75 107.37744121 -75 112 C-29.46 112 16.08 112 63 112 C60.41449032 93.90143225 49.24817516 79.45716911 34.8671875 68.64453125 C27.0091983 63.49918942 18.9788646 60.54201148 10 58 C9.37843018 57.82186768 8.75686035 57.64373535 8.11645508 57.46020508 C-5.78748609 54.43691184 -21.05822811 56.52015064 -34 62 Z " fill="#000000" transform="translate(206,80)"/>
<path d="M0 0 C1.27870972 -0.00700928 2.55741943 -0.01401855 3.87487793 -0.02124023 C7.37083707 -0.039426 10.86632235 -0.03242613 14.36228943 -0.01972389 C18.0270207 -0.00957139 21.69171238 -0.0189958 25.35644531 -0.02526855 C31.50983945 -0.03253845 37.66304133 -0.02297468 43.81640625 -0.00390625 C50.92271457 0.01786142 58.02856379 0.01080957 65.13486099 -0.01121187 C71.24461919 -0.02938478 77.35423946 -0.03191502 83.46401596 -0.0214572 C87.10942862 -0.01523258 90.75462574 -0.01435796 94.40002441 -0.02760315 C98.46487458 -0.04134167 102.52893775 -0.02228136 106.59375 0 C107.79704956 -0.00809692 109.00034912 -0.01619385 110.2401123 -0.02453613 C116.56095302 0.03967908 120.52320901 0.21142847 125.296875 4.51757812 C128.92521163 8.33687985 129.60687958 11.40036819 129.796875 16.51757812 C129.60687958 21.63478806 128.92521163 24.6982764 125.296875 28.51757812 C119.63841847 33.621865 113.94747295 33.08463897 106.59375 33.03515625 C104.67568542 33.04567017 104.67568542 33.04567017 102.71887207 33.05639648 C99.22291293 33.07458225 95.72742765 33.06758238 92.23146057 33.05488014 C88.5667293 33.04472764 84.90203762 33.05415205 81.23730469 33.0604248 C75.08391055 33.0676947 68.93070867 33.05813093 62.77734375 33.0390625 C55.67103543 33.01729483 48.56518621 33.02434668 41.45888901 33.04636812 C35.34913081 33.06454103 29.23951054 33.06707127 23.12973404 33.05661345 C19.48432138 33.05038883 15.83912426 33.04951421 12.19372559 33.0627594 C8.12887542 33.07649792 4.06481225 33.05743761 0 33.03515625 C-1.20329956 33.04325317 -2.40659912 33.0513501 -3.6463623 33.05969238 C-9.96720302 32.99547717 -13.92945901 32.82372778 -18.703125 28.51757812 C-22.33146163 24.6982764 -23.01312958 21.63478806 -23.203125 16.51757812 C-23.01312958 11.40036819 -22.33146163 8.33687985 -18.703125 4.51757812 C-13.04466847 -0.58670875 -7.35372295 -0.04948272 0 0 Z " fill="#000000" transform="translate(94.703125,367.482421875)"/>
<path d="M0 0 C1.27870972 -0.00700928 2.55741943 -0.01401855 3.87487793 -0.02124023 C7.37083707 -0.039426 10.86632235 -0.03242613 14.36228943 -0.01972389 C18.0270207 -0.00957139 21.69171238 -0.0189958 25.35644531 -0.02526855 C31.50983945 -0.03253845 37.66304133 -0.02297468 43.81640625 -0.00390625 C50.92271457 0.01786142 58.02856379 0.01080957 65.13486099 -0.01121187 C71.24461919 -0.02938478 77.35423946 -0.03191502 83.46401596 -0.0214572 C87.10942862 -0.01523258 90.75462574 -0.01435796 94.40002441 -0.02760315 C98.46487458 -0.04134167 102.52893775 -0.02228136 106.59375 0 C107.79704956 -0.00809692 109.00034912 -0.01619385 110.2401123 -0.02453613 C116.56095302 0.03967908 120.52320901 0.21142847 125.296875 4.51757812 C128.92521163 8.33687985 129.60687958 11.40036819 129.796875 16.51757812 C129.60687958 21.63478806 128.92521163 24.6982764 125.296875 28.51757812 C119.63841847 33.621865 113.94747295 33.08463897 106.59375 33.03515625 C104.67568542 33.04567017 104.67568542 33.04567017 102.71887207 33.05639648 C99.22291293 33.07458225 95.72742765 33.06758238 92.23146057 33.05488014 C88.5667293 33.04472764 84.90203762 33.05415205 81.23730469 33.0604248 C75.08391055 33.0676947 68.93070867 33.05813093 62.77734375 33.0390625 C55.67103543 33.01729483 48.56518621 33.02434668 41.45888901 33.04636812 C35.34913081 33.06454103 29.23951054 33.06707127 23.12973404 33.05661345 C19.48432138 33.05038883 15.83912426 33.04951421 12.19372559 33.0627594 C8.12887542 33.07649792 4.06481225 33.05743761 0 33.03515625 C-1.20329956 33.04325317 -2.40659912 33.0513501 -3.6463623 33.05969238 C-9.96720302 32.99547717 -13.92945901 32.82372778 -18.703125 28.51757812 C-22.33146163 24.6982764 -23.01312958 21.63478806 -23.203125 16.51757812 C-23.01312958 11.40036819 -22.33146163 8.33687985 -18.703125 4.51757812 C-13.04466847 -0.58670875 -7.35372295 -0.04948272 0 0 Z " fill="#000000" transform="translate(94.703125,303.482421875)"/>
</svg>
