<?xml version="1.0" encoding="UTF-8"?>
<svg version="1.1" xmlns="http://www.w3.org/2000/svg" width="512" height="512">
<path d="M0 0 C8.90235636 6.53383953 14.98699867 14.93952324 17.80859375 25.67578125 C18.29424973 29.05534607 18.31937565 32.33623919 18.3125 35.75 C18.31507813 37.02746094 18.31765625 38.30492187 18.3203125 39.62109375 C18.1875 43.3125 18.1875 43.3125 17.1875 49.3125 C22.4675 50.6325 27.7475 51.9525 33.1875 53.3125 C31.91699627 56.48875931 30.81847982 59.04505923 29.1875 61.9375 C24.99407849 70.30841097 24.89039878 79.71176635 24.9128418 88.89575195 C24.90773087 89.99653076 24.90261993 91.09730957 24.89735413 92.23144531 C24.88355628 95.83794733 24.88440761 99.44425612 24.88671875 103.05078125 C24.88282626 105.57984995 24.87849046 108.10891801 24.87373352 110.63798523 C24.86629223 115.92753721 24.86640717 121.21704 24.87182617 126.5065918 C24.87785867 132.58519965 24.86556212 138.66357561 24.8442561 144.74214393 C24.82438527 150.63198686 24.82148181 156.52174029 24.82499123 162.41161156 C24.82448096 164.89806856 24.81929913 167.3845295 24.80917931 169.87096596 C24.4048343 196.39488599 24.4048343 196.39488599 36.8125 219.1484375 C43.6332273 225.60845326 53.19275287 229.44190661 62.52789307 229.43275452 C63.61040344 229.43412918 64.69291382 229.43550385 65.80822754 229.43692017 C66.99074097 229.43332489 68.17325439 229.42972961 69.39160156 229.42602539 C70.6406427 229.42617142 71.88968384 229.42631744 73.17657471 229.4264679 C76.59774003 229.42589074 80.01884495 229.42087653 83.43999958 229.41389394 C87.01678095 229.40764131 90.59356313 229.40705509 94.17034912 229.40586853 C100.94175661 229.40276085 107.71314795 229.39455504 114.48454833 229.38451904 C122.1942866 229.37334043 129.90402565 229.36784304 137.61377001 229.36282361 C153.47168936 229.35237197 169.3295926 229.33478341 185.1875 229.3125 C186.42509823 233.02529469 186.54358897 236.62556346 186.75 240.5 C186.79318359 241.24958984 186.83636719 241.99917969 186.88085938 242.77148438 C186.98672685 244.61828375 187.0875976 246.46536834 187.1875 248.3125 C189.0746875 248.24869141 189.0746875 248.24869141 191 248.18359375 C194.5149068 248.06474957 195.08826886 248.24427859 198.1875 250.375 C200.71725133 254.09057226 200.9753128 255.9007483 200.1875 260.3125 C197.54264681 263.72970925 196.06274898 265.15257061 191.76379204 265.93809515 C190.42471513 265.96383852 189.08494012 265.96224824 187.74581909 265.93891239 C187.00204018 265.94588 186.25826127 265.95284761 185.4919436 265.96002635 C182.99134065 265.9773172 180.49227751 265.95888176 177.99169922 265.94068909 C176.18427768 265.94573257 174.37686113 265.95295987 172.5694561 265.96218723 C167.59634927 265.98116462 162.62373232 265.96884485 157.65063763 265.9514643 C152.28995318 265.93812257 146.92934194 265.95351589 141.56866455 265.96528625 C131.0645729 265.98369109 120.56066694 265.97513153 110.05658102 265.95719803 C101.52173645 265.94318761 92.98694237 265.93927588 84.4520874 265.9426403 C83.23860024 265.94311775 82.02511308 265.94359519 80.77485359 265.9440871 C78.3098839 265.9451134 75.84491423 265.94616876 73.37994456 265.94725286 C51.57031645 265.95582568 29.76077814 265.93912603 7.95117188 265.90942383 C-13.22464775 265.88058505 -34.400338 265.87350215 -55.57617188 265.88891602 C-78.62045949 265.90566689 -101.66468563 265.90972375 -124.70897484 265.89220566 C-127.16501235 265.89036122 -129.62104987 265.88852649 -132.0770874 265.88670158 C-133.8898401 265.88533345 -133.8898401 265.88533345 -135.73921406 265.88393768 C-144.2664405 265.87832535 -152.793637 265.88164594 -161.32086182 265.88824654 C-171.70893484 265.8959681 -182.09688037 265.8892696 -192.48492765 265.8640715 C-197.78779329 265.85154915 -203.09046016 265.84546305 -208.39333344 265.85661316 C-213.24411937 265.8666203 -218.0945081 265.85827141 -222.9452455 265.83503198 C-224.70357852 265.82985313 -226.46194685 265.83146951 -228.22026467 265.84042663 C-230.60426287 265.85156427 -232.98690449 265.83825204 -235.37081909 265.81865788 C-236.05895809 265.82773669 -236.74709709 265.83681551 -237.45608878 265.84616944 C-242.13923672 265.7707572 -244.53697194 264.63635989 -247.8125 261.3125 C-248.73777966 258.22097736 -248.51447293 255.44836268 -247.8125 252.3125 C-245.8125 249.75 -245.8125 249.75 -242.8125 248.3125 C-240.13102415 248.12824467 -237.50442674 248.2490632 -234.8125 248.3125 C-234.78671875 247.26835937 -234.7609375 246.22421875 -234.734375 245.1484375 C-233.81026772 218.35550761 -227.03563437 192.59002444 -215.8125 168.3125 C-215.32910156 167.26304199 -215.32910156 167.26304199 -214.8359375 166.19238281 C-205.79104604 146.80653313 -194.00060751 129.62010605 -179.35546875 114.06640625 C-177.56723728 112.12984222 -175.87615644 110.20299156 -174.2109375 108.16796875 C-171.06529301 104.42290992 -167.54111933 101.4573456 -163.8125 98.3125 C-162.60207031 97.23548828 -162.60207031 97.23548828 -161.3671875 96.13671875 C-134.05154425 72.36199222 -100.26062642 56.40212528 -64.8125 49.3125 C-64.97105469 48.48105469 -65.12960938 47.64960938 -65.29296875 46.79296875 C-67.36451269 32.91518191 -65.85768333 21.0104613 -57.55859375 9.44140625 C-43.22490678 -8.03478927 -19.32979797 -11.92336335 0 0 Z M-42.8125 18.3125 C-46.7719078 23.8737195 -48.95636469 28.18698506 -49 35.125 C-49.01417969 36.14207031 -49.02835938 37.15914062 -49.04296875 38.20703125 C-48.89860897 41.87133363 -48.89860897 41.87133363 -46.8125 47.3125 C-31.9625 47.3125 -17.1125 47.3125 -1.8125 47.3125 C1.63428754 40.41892491 2.60241735 35.24949656 0.4609375 27.77734375 C-2.77230372 19.90453282 -8.35625282 15.16662379 -15.8125 11.3125 C-25.32428807 8.38721121 -35.85772345 11.15901555 -42.8125 18.3125 Z " fill="#000000" transform="translate(279.8125,105.6875)"/>
<path d="M0 0 C53.13 0 106.26 0 161 0 C161.103125 15.46875 161.20625 30.9375 161.3125 46.875 C161.35802002 51.74362793 161.40354004 56.61225586 161.45043945 61.62841797 C161.47302246 67.61352539 161.47302246 67.61352539 161.47721863 70.42312622 C161.48485301 72.36857841 161.50234778 74.31400821 161.52787781 76.25930786 C161.7990528 98.02642114 161.7990528 98.02642114 156 105 C150.61714633 110.010634 145.26617765 113.23522327 137.75849915 113.27415466 C136.20483391 113.28911736 136.20483391 113.28911736 134.61978149 113.30438232 C133.49397675 113.305047 132.368172 113.30571167 131.20825195 113.30639648 C130.014142 113.31472 128.82003204 113.32304352 127.58973694 113.33161926 C124.32083912 113.35156851 121.05208903 113.36235717 117.78313851 113.36744571 C115.73689123 113.37109623 113.69066817 113.37734001 111.64443016 113.3844471 C104.49414374 113.4089292 97.34392969 113.42198991 90.19360352 113.42553711 C83.54802899 113.42916706 76.90291781 113.45902621 70.25748473 113.50094169 C64.53751383 113.53574378 58.81769567 113.55108729 53.09761971 113.55178314 C49.68780867 113.55257288 46.27846953 113.56116914 42.86876869 113.58978081 C39.05834681 113.61673653 35.24919033 113.61185502 31.4387207 113.59936523 C30.32303711 113.61419952 29.20735352 113.62903381 28.05786133 113.64431763 C19.95341439 113.56894785 13.12864015 111.83855946 7.0590868 106.1954565 C0.30270064 98.84810492 -0.15539513 90.61733872 -0.11352539 81.05712891 C-0.11370619 79.71789903 -0.11370619 79.71789903 -0.11389065 78.351614 C-0.11314738 75.47657103 -0.10554592 72.6015938 -0.09765625 69.7265625 C-0.09618502 67.94555696 -0.09516542 66.16455098 -0.09460449 64.38354492 C-0.08937265 57.79735667 -0.07541139 51.21117768 -0.0625 44.625 C-0.041875 29.89875 -0.02125 15.1725 0 0 Z " fill="#000000" transform="translate(319,208)"/>
<path d="M0 0 C3.58536657 0.03083729 7.17074024 0.06072704 10.75611496 0.09059906 C51.61289711 0.43790366 51.61289711 0.43790366 71.64310837 1.06649017 C72.86650925 1.10358597 74.08991013 1.14068176 75.35038376 1.17890167 C76.43698288 1.21794113 77.523582 1.25698059 78.64310837 1.29720306 C80.03529587 1.34681938 80.03529587 1.34681938 81.45560837 1.39743805 C83.64310837 1.59383392 83.64310837 1.59383392 85.64310837 2.59383392 C86.14084315 8.56665132 85.13783183 12.66945086 81.64310837 17.59383392 C75.94865788 23.82694865 70.96654291 27.18859573 62.33467972 27.84568292 C60.60534677 27.84698308 60.60534677 27.84698308 58.8410778 27.84830952 C58.19073852 27.85151599 57.54039923 27.85472247 56.87035269 27.85802612 C54.70004116 27.86630052 52.53000746 27.86041096 50.35969162 27.85453033 C48.78438889 27.85755219 47.20908762 27.86144184 45.63378894 27.8661229 C41.31155339 27.87640725 36.98940074 27.87421996 32.66715837 27.86994231 C28.00311656 27.86747588 23.33909476 27.87648821 18.67506027 27.8839798 C9.54023777 27.89673114 0.40544466 27.89851994 -8.72938524 27.89617953 C-16.15429757 27.8943967 -23.57920098 27.89614527 -31.00411224 27.90040398 C-32.58907383 27.90129676 -32.58907383 27.90129676 -34.20605484 27.90220758 C-36.35260653 27.90341933 -38.49915821 27.90463346 -40.64570989 27.90584996 C-60.77758006 27.91672718 -80.90943349 27.91456214 -101.0413046 27.90846511 C-119.45793448 27.90329581 -137.87451147 27.91455143 -156.29113089 27.93356333 C-175.20215849 27.95293594 -194.11316106 27.96119874 -213.02419865 27.95744008 C-223.64096195 27.95552716 -234.25768022 27.95802448 -244.87443542 27.97215462 C-253.91259149 27.98406202 -262.95067481 27.98548048 -271.98883186 27.97336445 C-276.59954946 27.96747128 -281.21013397 27.96638847 -285.82084274 27.97836685 C-290.04378478 27.98921029 -294.26648239 27.98614064 -298.48941292 27.97210517 C-300.0149256 27.969454 -301.54045734 27.97183798 -303.06595133 27.97984103 C-322.61076512 28.07523861 -322.61076512 28.07523861 -330.00532913 21.23836517 C-333.68833029 16.75702561 -336.65740713 11.36520806 -336.66939163 5.46883392 C-336.56626663 4.52008392 -336.46314163 3.57133392 -336.35689163 2.59383392 C-333.93283824 1.38180723 -332.26798447 1.39802251 -329.55586624 1.29720306 C-328.51152924 1.2581636 -327.46719223 1.21912415 -326.39120865 1.17890167 C-324.62431938 1.12325798 -324.62431938 1.12325798 -322.82173538 1.06649017 C-321.55071472 1.02516464 -320.27969406 0.98383911 -318.97015762 0.94126129 C-299.14510159 0.33516293 -279.306742 0.22782799 -259.47428131 0.061203 C-255.86409019 0.03086927 -252.25390859 -0.0004667 -248.64372635 -0.03183746 C-174.69575126 -0.6647175 -100.73947148 -0.73072277 0 0 Z " fill="#000000" transform="translate(381.3568916320801,385.40616607666016)"/>
<path d="M0 0 C1.00074554 -0.0071553 2.00149109 -0.01431061 3.03256226 -0.02168274 C4.12455933 -0.02437164 5.2165564 -0.02706055 6.34164429 -0.02983093 C7.49659393 -0.03640213 8.65154358 -0.04297333 9.8414917 -0.04974365 C13.66755234 -0.06946986 17.49357372 -0.08113853 21.31967163 -0.09111023 C22.62742931 -0.09518576 23.935187 -0.09926128 25.2825737 -0.10346031 C31.49225212 -0.12250376 37.70191875 -0.1367345 43.91162074 -0.14507228 C51.06002473 -0.15483086 58.20811794 -0.18111743 65.35641253 -0.22157317 C70.89376119 -0.25182698 76.43102126 -0.26655003 81.9684509 -0.26985329 C85.26981287 -0.27219397 88.57076848 -0.28302679 91.87205887 -0.30631447 C95.56269113 -0.33072799 99.25251806 -0.32973605 102.94320679 -0.32279968 C104.56298431 -0.34201477 104.56298431 -0.34201477 106.21548462 -0.36161804 C114.42670158 -0.30559055 121.465717 1.20226013 127.90560913 6.52217102 C135.75835323 16.22261961 135.03060913 19.07701827 135.03060913 33.14717102 C81.90060913 33.14717102 28.77060913 33.14717102 -25.96939087 33.14717102 C-25.96939087 22.01704352 -25.48690901 14.49113936 -17.96939087 6.14717102 C-12.31955673 2.02484836 -6.97322574 0.03432202 0 0 Z " fill="#000000" transform="translate(344.9693908691406,159.8528289794922)"/>
</svg>
